HIERARCHY
ROOT hip
{
	OFFSET 0.000000 0.000000 0.000000 
	CHANNELS 6 Xposition Yposition Zposition Xrotation Zrotation Yrotation
	JOINT abdomen
	{
		OFFSET 0.000000 3.402643 0.000000 
		CHANNELS 3 Xrotation Zrotation Yrotation
		JOINT chest
		{
			OFFSET 0.000000 8.438565 -0.680529 
			CHANNELS 3 Xrotation Zrotation Yrotation
			JOINT neck
			{
				OFFSET 0.000000 10.207942 -0.272212 
				CHANNELS 3 Xrotation Zrotation Yrotation
				JOINT head
				{
					OFFSET 0.000000 3.130431 0.000000 
					CHANNELS 3 Xrotation Zrotation Yrotation
					End Site
					{
						OFFSET 0.000000 3.130435 0.000000 
					}
				}
			}
			JOINT lCollar
			{
				OFFSET 3.470700 6.669187 -0.816635 
				CHANNELS 3 Yrotation Zrotation Xrotation
				JOINT lShldr
				{
					OFFSET 3.198488 0.000000 0.000000 
					CHANNELS 3 Zrotation Yrotation Xrotation
					JOINT lForeArm
					{
						OFFSET 10.139888 0.000000 0.000000 
						CHANNELS 3 Yrotation Zrotation Xrotation
						JOINT lHand
						{
							OFFSET 8.370511 0.000000 0.000000 
							CHANNELS 3 Zrotation Yrotation Xrotation
							End Site
							{
								OFFSET 4.083176 0.000000 0.000000 
							}
						}
					}
				}
			}
			JOINT rCollar
			{
				OFFSET -3.470700 6.669187 -0.816635 
				CHANNELS 3 Yrotation Zrotation Xrotation
				JOINT rShldr
				{
					OFFSET -3.198488 0.000000 0.000000 
					CHANNELS 3 Zrotation Yrotation Xrotation
					JOINT rForeArm
					{
						OFFSET -10.139888 0.000000 0.000000 
						CHANNELS 3 Yrotation Zrotation Xrotation
						JOINT rHand
						{
							OFFSET -8.370511 0.000000 0.000000 
							CHANNELS 3 Zrotation Yrotation Xrotation
							End Site
							{
								OFFSET -4.083176 0.000000 0.000000 
							}
						}
					}
				}
			}
		}
	}
	JOINT lThigh
	{
		OFFSET 5.308129 -1.633274 1.361059 
		CHANNELS 3 Xrotation Zrotation Yrotation
		JOINT lShin
		{
			OFFSET -2.041588 -20.007561 0.000000 
			CHANNELS 3 Xrotation Zrotation Yrotation
			JOINT lFoot
			{
				OFFSET 0.000000 -19.190928 -1.224953 
				CHANNELS 3 Xrotation Yrotation Zrotation
				End Site
				{
					OFFSET 0.000000 -2.449906 4.627600 
				}
			}
		}
	}
	JOINT rThigh
	{
		OFFSET -5.308129 -1.633274 1.361059 
		CHANNELS 3 Xrotation Zrotation Yrotation
		JOINT rShin
		{
			OFFSET 2.041588 -20.007561 0.000000 
			CHANNELS 3 Xrotation Zrotation Yrotation
			JOINT rFoot
			{
				OFFSET 0.000000 -19.190928 -1.224953 
				CHANNELS 3 Xrotation Yrotation Zrotation
				End Site
				{
					OFFSET 0.000000 -2.449906 4.627600 
				}
			}
		}
	}
}
MOTION
Frames: 8
Frame Time: 0.016667
10.367028 10.144131 71.649818 82.791954 -0.551314 -58.158577 0.000000 0.000000 0.000000 28.769560 2.362958 0.948473 -5.166697 10.010961 -31.599470 6.880655 18.086563 5.477719 12.985717 20.240931 17.303740 -128.205902 -31.168089 41.512581 -119.765495 3.986862 83.454849 9.981232 -1.052247 -1.573170 -15.041588 -10.171471 8.679151 124.866226 56.624790 81.951820 38.035408 -3.149298 50.022415 -85.954895 -15.347929 9.600967 -9.160152 -13.077663 143.850082 -4.233969 -2.506223 -21.305382 82.529488 -5.003523 148.699753 -9.077617 -1.980069 -15.518152 -4.177225 2.535787 23.115820 52.897739 7.516537 -6.901338 
11.132098 8.790408 72.834816 86.651176 -0.069105 -59.638752 0.000000 0.000000 0.000000 27.223627 3.544899 -0.205290 -4.696513 12.823239 -34.216263 6.908805 18.520084 5.625830 14.311964 21.025860 16.499647 -130.373077 -28.684164 41.887432 -121.175247 3.810977 80.315430 6.524549 -2.033096 -1.480182 -16.494118 -8.168430 5.157240 121.656868 53.065376 81.348160 34.758293 -4.241816 49.251823 -78.728836 -14.649659 7.729794 -11.769195 -12.561008 149.998306 -3.933879 -2.234407 -11.717033 86.029442 -4.296644 159.695313 -11.603775 -1.823359 -11.184910 -4.216617 2.584908 24.587275 52.780437 7.334233 -4.938042 
11.896911 7.439323 74.018494 90.491577 0.505227 -61.087963 0.000000 0.000000 0.000000 25.658117 4.705669 -1.381123 -4.341966 15.645993 -36.836456 6.940367 18.963013 5.774261 15.636256 21.814413 15.647955 -132.479431 -26.153992 42.072430 -122.593575 3.706453 77.177422 3.054759 -3.010168 -1.332513 -17.804819 -6.105714 1.709745 118.758331 49.513664 81.108841 31.471090 -5.261293 48.415993 -71.570557 -13.741941 5.974501 -14.286937 -11.758567 156.053833 -3.584357 -2.016756 -2.422279 89.323250 -2.919011 170.787308 -14.097026 -1.463905 -6.852365 -4.256108 2.634222 26.078293 52.664368 7.123707 -2.947136 
12.571872 7.073467 74.722099 93.922798 -0.171575 -62.461437 0.000000 0.000000 0.000000 24.706125 6.380422 -2.554797 -2.045249 15.328903 -37.793793 5.606046 17.903294 5.422228 6.305323 25.720831 6.391637 -134.726746 -15.493519 18.941326 -124.185707 3.837612 76.973412 -5.028321 -5.242937 -0.750804 -17.189058 -6.904744 -0.093794 119.769180 47.474659 83.803772 27.190676 -6.264995 43.942215 -71.911438 -13.783060 6.051783 -14.896144 -9.298881 151.960739 -4.596332 -5.204716 -91.548889 82.528236 5.723273 -111.472702 -15.715082 -0.136713 -4.392857 -4.235031 2.601418 25.191456 54.035561 7.185940 -3.117910 
13.246543 6.709154 75.424850 97.342926 -0.761237 -63.877506 0.000000 0.000000 0.000000 23.722416 8.029802 -3.756472 0.259794 15.033605 -38.753597 4.288376 16.841621 5.084242 -2.566431 30.000000 -2.388861 -140.897293 -6.517988 -3.768584 -125.776077 3.977540 76.774712 -13.154348 -7.358565 0.143144 -16.582125 -7.737875 -1.891634 120.611923 45.422516 86.352455 22.839420 -6.935925 39.406330 -72.252502 -13.823389 6.129035 -15.658952 -6.896147 147.881409 178.591736 -173.771774 -0.852219 72.592415 0.963835 -33.558193 -17.288326 1.239128 -1.989379 -4.185144 2.600384 24.333647 55.407398 7.239859 -3.287292 
13.822502 6.921846 75.819756 98.144310 -1.914684 -67.489182 0.000000 0.000000 0.000000 25.124302 8.656939 -4.355967 0.449659 10.824909 -36.491039 2.087706 14.017563 4.137591 -9.068237 28.547760 -3.161475 -140.211151 -8.639158 -13.262288 -127.227180 4.192194 76.510956 -16.168285 -8.098408 0.546882 -14.861217 -11.412469 -1.493079 125.375748 46.129196 92.417381 20.070826 -7.205022 36.327499 -69.145027 -13.370773 5.398069 -15.260955 -4.384350 157.150543 178.557831 -173.730804 1.104671 58.902397 1.093104 -36.671154 -20.886259 2.021240 0.322002 2.684267 2.333221 19.911451 53.468758 7.520703 -7.553217 
14.398318 7.135243 76.214149 99.011650 -3.006636 -71.118034 0.000000 0.000000 0.000000 26.525705 9.302028 -4.927032 0.458220 6.623608 -34.263943 -0.038063 11.182792 3.326617 -15.454807 26.285191 -4.194313 -139.158615 -10.610378 -22.824188 -128.667603 4.408543 76.263313 -19.183550 -8.820827 0.981122 -13.080380 -15.064327 -0.985005 -49.734253 133.537308 -81.402039 17.294809 -7.310258 33.250507 -66.052132 -12.879169 4.696933 -14.492414 -1.962794 166.381012 178.489578 -173.691162 3.044509 45.284786 1.942056 -39.699780 -24.461977 2.949065 2.597805 9.554859 2.607195 15.419002 51.520523 7.980079 -11.834143 
14.926325 7.615425 76.432114 99.129028 -2.751554 -74.166916 0.000000 0.000000 0.000000 26.987740 7.857265 -5.303233 0.138947 3.463199 -34.093777 -2.127064 11.911310 3.554799 -15.942561 24.343937 -3.562027 -138.522446 -12.461188 -24.162878 -129.395691 4.556614 76.090858 -19.330984 -8.858358 1.007450 -12.180925 -16.564100 -1.335509 -47.240562 134.171417 -79.030174 17.414375 -7.598495 33.964581 -61.254379 -12.036648 3.660456 -15.958387 -1.933208 162.808792 178.500839 -173.702347 2.995025 47.424118 2.040650 -40.935028 -27.313177 3.193686 1.702040 12.235848 2.214688 10.798001 51.668602 8.149396 -13.972473 
